<?xml version="1.0" encoding="utf-8"?>
<!-- Generator: Adobe Illustrator 16.0.0, SVG Export Plug-In . SVG Version: 6.00 Build 0)  -->
<!DOCTYPE svg PUBLIC "-//W3C//DTD SVG 1.1//EN" "http://www.w3.org/Graphics/SVG/1.1/DTD/svg11.dtd">
<svg version="1.1" id="Layer_1" xmlns="http://www.w3.org/2000/svg" xmlns:xlink="http://www.w3.org/1999/xlink" x="0px" y="0px"
	 width="461px" height="136px" viewBox="0 0 461 136" enable-background="new 0 0 461 136" xml:space="preserve">
<title>log</title>
<desc>Created with Sketch.</desc>
<g>
	<g>
		<path fill="#FFFFFF" d="M5.253,112.584l2.493-0.219c0.118,0.999,0.393,1.819,0.824,2.459c0.432,0.641,1.102,1.158,2.01,1.554
			c0.908,0.395,1.93,0.592,3.065,0.592c1.008,0,1.897-0.149,2.67-0.449c0.771-0.3,1.346-0.71,1.723-1.232s0.565-1.093,0.565-1.71
			c0-0.627-0.182-1.174-0.545-1.642s-0.962-0.86-1.798-1.179c-0.536-0.209-1.721-0.533-3.556-0.974s-3.119-0.856-3.855-1.247
			c-0.953-0.499-1.664-1.119-2.132-1.859s-0.701-1.568-0.701-2.486c0-1.008,0.286-1.95,0.857-2.826
			c0.572-0.877,1.408-1.542,2.507-1.996s2.32-0.681,3.665-0.681c1.48,0,2.786,0.238,3.916,0.715
			c1.131,0.477,2.001,1.179,2.609,2.104c0.608,0.927,0.936,1.976,0.98,3.147l-2.533,0.19c-0.137-1.263-0.598-2.216-1.383-2.861
			c-0.786-0.645-1.946-0.967-3.481-0.967c-1.599,0-2.763,0.293-3.494,0.879c-0.73,0.586-1.097,1.292-1.097,2.118
			c0,0.718,0.259,1.308,0.776,1.771c0.509,0.464,1.837,0.938,3.985,1.424c2.147,0.486,3.621,0.911,4.421,1.274
			c1.162,0.535,2.021,1.215,2.574,2.036c0.554,0.822,0.831,1.769,0.831,2.841c0,1.062-0.305,2.063-0.913,3.004
			c-0.608,0.939-1.482,1.671-2.622,2.193c-1.14,0.521-2.423,0.783-3.849,0.783c-1.808,0-3.321-0.264-4.543-0.79
			c-1.222-0.527-2.18-1.319-2.875-2.378C5.655,115.115,5.289,113.919,5.253,112.584z"/>
		<path fill="#FFFFFF" d="M29.803,116.807l0.354,2.166c-0.69,0.146-1.308,0.218-1.853,0.218c-0.89,0-1.58-0.141-2.07-0.422
			c-0.491-0.281-0.836-0.651-1.036-1.11c-0.199-0.459-0.299-1.424-0.299-2.895v-8.324H23.1v-1.907h1.799v-3.583l2.438-1.471v5.054
			h2.466v1.907h-2.466v8.46c0,0.699,0.043,1.149,0.129,1.349c0.086,0.2,0.228,0.359,0.423,0.477
			c0.195,0.118,0.474,0.178,0.838,0.178C28.999,116.902,29.357,116.87,29.803,116.807z"/>
		<path fill="#FFFFFF" d="M32.172,119v-14.468h2.207v2.193c0.563-1.026,1.083-1.703,1.561-2.03c0.477-0.326,1.001-0.49,1.573-0.49
			c0.826,0,1.666,0.264,2.52,0.79l-0.844,2.275c-0.6-0.354-1.199-0.531-1.799-0.531c-0.536,0-1.017,0.161-1.443,0.483
			c-0.428,0.322-0.731,0.77-0.913,1.342c-0.272,0.872-0.409,1.826-0.409,2.861V119H32.172z"/>
		<path fill="#FFFFFF" d="M50.932,117.216c-0.908,0.771-1.783,1.316-2.623,1.635c-0.84,0.317-1.741,0.477-2.704,0.477
			c-1.589,0-2.811-0.389-3.664-1.165c-0.854-0.776-1.281-1.769-1.281-2.977c0-0.708,0.161-1.355,0.484-1.941
			c0.322-0.586,0.744-1.056,1.267-1.41c0.522-0.354,1.11-0.622,1.764-0.804c0.481-0.127,1.208-0.249,2.18-0.367
			c1.98-0.236,3.438-0.519,4.373-0.845c0.01-0.336,0.014-0.55,0.014-0.641c0-0.999-0.231-1.703-0.694-2.111
			c-0.627-0.554-1.558-0.831-2.793-0.831c-1.153,0-2.005,0.202-2.555,0.606c-0.549,0.404-0.955,1.119-1.219,2.146l-2.397-0.327
			c0.218-1.026,0.576-1.854,1.076-2.486c0.499-0.631,1.222-1.117,2.166-1.458c0.944-0.34,2.039-0.511,3.283-0.511
			c1.234,0,2.238,0.146,3.011,0.437c0.771,0.29,1.339,0.656,1.703,1.097c0.362,0.44,0.617,0.996,0.763,1.669
			c0.081,0.417,0.122,1.171,0.122,2.261v3.27c0,2.28,0.053,3.722,0.157,4.325c0.104,0.604,0.311,1.184,0.619,1.737h-2.561
			C51.167,118.491,51.004,117.896,50.932,117.216z M50.727,111.739c-0.89,0.363-2.225,0.672-4.005,0.926
			c-1.008,0.146-1.721,0.31-2.139,0.49c-0.418,0.183-0.74,0.448-0.968,0.798c-0.227,0.35-0.34,0.737-0.34,1.164
			c0,0.654,0.247,1.199,0.742,1.635c0.495,0.437,1.22,0.654,2.173,0.654c0.944,0,1.784-0.207,2.521-0.62
			c0.735-0.413,1.275-0.979,1.621-1.696c0.263-0.554,0.395-1.371,0.395-2.452V111.739z"/>
		<path fill="#FFFFFF" d="M62.361,116.807l0.354,2.166c-0.69,0.146-1.308,0.218-1.853,0.218c-0.89,0-1.58-0.141-2.07-0.422
			c-0.491-0.281-0.836-0.651-1.036-1.11c-0.199-0.459-0.299-1.424-0.299-2.895v-8.324h-1.799v-1.907h1.799v-3.583l2.438-1.471v5.054
			h2.466v1.907h-2.466v8.46c0,0.699,0.043,1.149,0.129,1.349c0.086,0.2,0.228,0.359,0.423,0.477
			c0.195,0.118,0.474,0.178,0.838,0.178C61.558,116.902,61.916,116.87,62.361,116.807z"/>
		<path fill="#FFFFFF" d="M74.663,114.341l2.534,0.313c-0.4,1.48-1.141,2.629-2.221,3.446c-1.081,0.817-2.462,1.227-4.142,1.227
			c-2.116,0-3.794-0.651-5.034-1.955c-1.239-1.303-1.859-3.131-1.859-5.483c0-2.434,0.627-4.323,1.88-5.667
			c1.254-1.344,2.879-2.017,4.877-2.017c1.935,0,3.516,0.659,4.741,1.976c1.227,1.317,1.839,3.17,1.839,5.559
			c0,0.146-0.004,0.363-0.014,0.653H66.476c0.091,1.59,0.54,2.807,1.349,3.651s1.816,1.267,3.024,1.267
			c0.899,0,1.666-0.236,2.302-0.708C73.786,116.13,74.29,115.376,74.663,114.341z M66.611,110.377h8.079
			c-0.109-1.217-0.418-2.13-0.927-2.738c-0.781-0.944-1.794-1.417-3.038-1.417c-1.126,0-2.072,0.377-2.84,1.131
			S66.693,109.114,66.611,110.377z"/>
		<path fill="#FFFFFF" d="M79.826,120.199l2.384,0.354c0.1,0.736,0.377,1.271,0.831,1.607c0.608,0.454,1.439,0.682,2.493,0.682
			c1.135,0,2.012-0.228,2.629-0.682c0.618-0.454,1.035-1.09,1.254-1.907c0.127-0.499,0.186-1.548,0.177-3.146
			c-1.071,1.263-2.407,1.894-4.005,1.894c-1.989,0-3.528-0.718-4.618-2.152s-1.635-3.156-1.635-5.163
			c0-1.381,0.249-2.654,0.749-3.821c0.499-1.167,1.224-2.068,2.173-2.704s2.063-0.954,3.345-0.954c1.707,0,3.114,0.69,4.223,2.071
			v-1.744h2.262v12.506c0,2.253-0.229,3.849-0.688,4.789c-0.458,0.939-1.185,1.682-2.18,2.227c-0.994,0.545-2.218,0.817-3.671,0.817
			c-1.726,0-3.12-0.388-4.183-1.164S79.79,121.761,79.826,120.199z M81.855,111.508c0,1.897,0.377,3.282,1.131,4.154
			s1.698,1.308,2.834,1.308c1.126,0,2.07-0.434,2.833-1.301c0.764-0.867,1.145-2.228,1.145-4.08c0-1.771-0.393-3.105-1.178-4.005
			c-0.786-0.899-1.732-1.349-2.841-1.349c-1.09,0-2.017,0.442-2.779,1.328S81.855,109.764,81.855,111.508z"/>
		<path fill="#FFFFFF" d="M95.684,124.572l-0.272-2.303c0.535,0.146,1.003,0.218,1.403,0.218c0.545,0,0.98-0.091,1.308-0.272
			s0.595-0.436,0.804-0.763c0.154-0.245,0.403-0.854,0.749-1.825c0.045-0.137,0.118-0.336,0.218-0.6l-5.49-14.495h2.644l3.011,8.378
			c0.39,1.062,0.739,2.18,1.049,3.352c0.281-1.126,0.617-2.225,1.008-3.297l3.093-8.433h2.452l-5.504,14.713
			c-0.591,1.589-1.049,2.684-1.376,3.283c-0.436,0.809-0.936,1.401-1.499,1.778c-0.562,0.376-1.234,0.564-2.016,0.564
			C96.791,124.871,96.265,124.771,95.684,124.572z"/>
		<path fill="#FFFFFF" d="M133.2,119V99.028h7.493c1.525,0,2.75,0.202,3.672,0.606c0.921,0.404,1.644,1.026,2.166,1.866
			c0.521,0.841,0.783,1.719,0.783,2.637c0,0.854-0.231,1.657-0.695,2.411c-0.463,0.754-1.162,1.362-2.098,1.825
			c1.208,0.354,2.137,0.958,2.786,1.812c0.649,0.854,0.974,1.862,0.974,3.024c0,0.936-0.197,1.806-0.593,2.609
			c-0.395,0.804-0.883,1.423-1.464,1.859c-0.582,0.436-1.311,0.765-2.187,0.987c-0.877,0.223-1.951,0.334-3.222,0.334H133.2z
			 M135.844,107.42h4.318c1.172,0,2.012-0.076,2.521-0.231c0.672-0.199,1.178-0.531,1.519-0.994s0.511-1.044,0.511-1.744
			c0-0.662-0.159-1.246-0.477-1.75c-0.318-0.504-0.772-0.85-1.362-1.035c-0.591-0.187-1.604-0.279-3.038-0.279h-3.991V107.42z
			 M135.844,116.644h4.973c0.854,0,1.452-0.032,1.798-0.096c0.608-0.109,1.117-0.291,1.525-0.545
			c0.409-0.254,0.745-0.624,1.009-1.11c0.263-0.485,0.395-1.047,0.395-1.683c0-0.744-0.19-1.392-0.572-1.941
			c-0.381-0.549-0.91-0.935-1.587-1.157s-1.65-0.334-2.922-0.334h-4.618V116.644z"/>
		<path fill="#FFFFFF" d="M151.578,119v-14.468h2.207v2.193c0.563-1.026,1.083-1.703,1.561-2.03c0.477-0.326,1.001-0.49,1.573-0.49
			c0.826,0,1.666,0.264,2.52,0.79l-0.844,2.275c-0.6-0.354-1.199-0.531-1.799-0.531c-0.536,0-1.017,0.161-1.443,0.483
			c-0.428,0.322-0.731,0.77-0.913,1.342c-0.272,0.872-0.409,1.826-0.409,2.861V119H151.578z"/>
		<path fill="#FFFFFF" d="M170.338,117.216c-0.908,0.771-1.783,1.316-2.623,1.635c-0.84,0.317-1.741,0.477-2.704,0.477
			c-1.589,0-2.811-0.389-3.664-1.165c-0.854-0.776-1.281-1.769-1.281-2.977c0-0.708,0.161-1.355,0.484-1.941
			c0.322-0.586,0.744-1.056,1.267-1.41c0.522-0.354,1.11-0.622,1.764-0.804c0.481-0.127,1.208-0.249,2.18-0.367
			c1.98-0.236,3.438-0.519,4.373-0.845c0.01-0.336,0.014-0.55,0.014-0.641c0-0.999-0.231-1.703-0.694-2.111
			c-0.627-0.554-1.558-0.831-2.793-0.831c-1.153,0-2.005,0.202-2.555,0.606c-0.549,0.404-0.955,1.119-1.219,2.146l-2.397-0.327
			c0.218-1.026,0.576-1.854,1.076-2.486c0.499-0.631,1.222-1.117,2.166-1.458c0.944-0.34,2.039-0.511,3.283-0.511
			c1.234,0,2.238,0.146,3.011,0.437c0.771,0.29,1.339,0.656,1.703,1.097c0.362,0.44,0.617,0.996,0.763,1.669
			c0.081,0.417,0.122,1.171,0.122,2.261v3.27c0,2.28,0.053,3.722,0.157,4.325c0.104,0.604,0.311,1.184,0.619,1.737h-2.561
			C170.573,118.491,170.41,117.896,170.338,117.216z M170.133,111.739c-0.89,0.363-2.225,0.672-4.005,0.926
			c-1.008,0.146-1.721,0.31-2.139,0.49c-0.418,0.183-0.74,0.448-0.968,0.798c-0.227,0.35-0.34,0.737-0.34,1.164
			c0,0.654,0.247,1.199,0.742,1.635c0.495,0.437,1.22,0.654,2.173,0.654c0.944,0,1.784-0.207,2.521-0.62
			c0.735-0.413,1.275-0.979,1.621-1.696c0.263-0.554,0.395-1.371,0.395-2.452V111.739z"/>
		<path fill="#FFFFFF" d="M176.413,119v-14.468h2.207v2.058c1.062-1.59,2.598-2.385,4.604-2.385c0.872,0,1.674,0.157,2.404,0.471
			c0.731,0.312,1.278,0.724,1.642,1.232s0.618,1.112,0.764,1.812c0.09,0.455,0.136,1.249,0.136,2.385V119h-2.452v-8.801
			c0-0.999-0.096-1.745-0.286-2.24s-0.529-0.891-1.015-1.186c-0.486-0.295-1.056-0.443-1.71-0.443c-1.044,0-1.946,0.332-2.704,0.995
			c-0.759,0.663-1.138,1.921-1.138,3.773V119H176.413z"/>
		<path fill="#FFFFFF" d="M201.316,119v-1.825c-0.918,1.435-2.267,2.152-4.046,2.152c-1.154,0-2.214-0.318-3.182-0.954
			c-0.967-0.636-1.716-1.523-2.247-2.663s-0.798-2.45-0.798-3.931c0-1.443,0.241-2.754,0.723-3.93s1.203-2.077,2.166-2.704
			s2.039-0.94,3.229-0.94c0.872,0,1.648,0.185,2.33,0.552c0.681,0.368,1.234,0.848,1.661,1.438v-7.166h2.438V119H201.316z
			 M193.564,111.779c0,1.854,0.391,3.238,1.172,4.155c0.781,0.918,1.703,1.376,2.766,1.376c1.071,0,1.982-0.438,2.731-1.314
			c0.749-0.876,1.124-2.214,1.124-4.012c0-1.98-0.382-3.434-1.145-4.359c-0.763-0.927-1.703-1.39-2.82-1.39
			c-1.09,0-2,0.445-2.731,1.335C193.931,108.46,193.564,109.863,193.564,111.779z"/>
		<path fill="#FFFFFF" d="M207.46,101.849v-2.82h2.452v2.82H207.46z M207.46,119v-14.468h2.452V119H207.46z"/>
		<path fill="#FFFFFF" d="M213.645,119v-14.468h2.207v2.058c1.062-1.59,2.598-2.385,4.604-2.385c0.872,0,1.674,0.157,2.404,0.471
			c0.731,0.312,1.278,0.724,1.642,1.232s0.618,1.112,0.764,1.812c0.09,0.455,0.136,1.249,0.136,2.385V119h-2.452v-8.801
			c0-0.999-0.096-1.745-0.286-2.24s-0.529-0.891-1.015-1.186c-0.486-0.295-1.056-0.443-1.71-0.443c-1.044,0-1.946,0.332-2.704,0.995
			c-0.759,0.663-1.138,1.921-1.138,3.773V119H213.645z"/>
		<path fill="#FFFFFF" d="M228.712,120.199l2.384,0.354c0.1,0.736,0.377,1.271,0.831,1.607c0.608,0.454,1.439,0.682,2.493,0.682
			c1.135,0,2.012-0.228,2.629-0.682c0.618-0.454,1.035-1.09,1.254-1.907c0.127-0.499,0.186-1.548,0.177-3.146
			c-1.071,1.263-2.407,1.894-4.005,1.894c-1.989,0-3.528-0.718-4.618-2.152s-1.635-3.156-1.635-5.163
			c0-1.381,0.249-2.654,0.749-3.821c0.499-1.167,1.224-2.068,2.173-2.704s2.063-0.954,3.345-0.954c1.707,0,3.114,0.69,4.223,2.071
			v-1.744h2.262v12.506c0,2.253-0.229,3.849-0.688,4.789c-0.458,0.939-1.185,1.682-2.18,2.227c-0.994,0.545-2.218,0.817-3.671,0.817
			c-1.726,0-3.12-0.388-4.183-1.164S228.676,121.761,228.712,120.199z M230.741,111.508c0,1.897,0.377,3.282,1.131,4.154
			s1.698,1.308,2.834,1.308c1.126,0,2.07-0.434,2.833-1.301c0.764-0.867,1.145-2.228,1.145-4.08c0-1.771-0.393-3.105-1.178-4.005
			c-0.786-0.899-1.732-1.349-2.841-1.349c-1.09,0-2.017,0.442-2.779,1.328S230.741,109.764,230.741,111.508z"/>
		<path fill="#FFFFFF" d="M271.733,119l-5.299-19.972h2.711l3.038,13.092c0.326,1.372,0.608,2.734,0.845,4.087
			c0.508-2.134,0.808-3.364,0.898-3.691l3.801-13.487h3.188l2.86,10.108c0.718,2.507,1.235,4.863,1.553,7.07
			c0.255-1.262,0.586-2.711,0.995-4.346l3.133-12.833h2.656L286.638,119h-2.548l-4.21-15.217c-0.354-1.271-0.562-2.053-0.626-2.344
			c-0.209,0.918-0.404,1.699-0.586,2.344L274.431,119H271.733z"/>
		<path fill="#FFFFFF" d="M303.668,114.341l2.534,0.313c-0.4,1.48-1.141,2.629-2.221,3.446c-1.081,0.817-2.462,1.227-4.142,1.227
			c-2.116,0-3.794-0.651-5.034-1.955c-1.239-1.303-1.859-3.131-1.859-5.483c0-2.434,0.627-4.323,1.88-5.667
			c1.254-1.344,2.879-2.017,4.877-2.017c1.935,0,3.516,0.659,4.741,1.976c1.227,1.317,1.839,3.17,1.839,5.559
			c0,0.146-0.004,0.363-0.014,0.653H295.48c0.091,1.59,0.54,2.807,1.349,3.651s1.816,1.267,3.024,1.267
			c0.899,0,1.666-0.236,2.302-0.708C302.791,116.13,303.295,115.376,303.668,114.341z M295.616,110.377h8.079
			c-0.109-1.217-0.418-2.13-0.927-2.738c-0.781-0.944-1.794-1.417-3.038-1.417c-1.126,0-2.072,0.377-2.84,1.131
			S295.698,109.114,295.616,110.377z"/>
		<path fill="#FFFFFF" d="M311.542,119h-2.275V99.028h2.452v7.125c1.035-1.299,2.357-1.948,3.965-1.948
			c0.89,0,1.732,0.18,2.526,0.538c0.795,0.359,1.449,0.863,1.962,1.513c0.514,0.649,0.915,1.433,1.206,2.35
			c0.29,0.918,0.436,1.898,0.436,2.942c0,2.479-0.612,4.396-1.839,5.749c-1.227,1.354-2.697,2.03-4.414,2.03
			c-1.707,0-3.047-0.713-4.019-2.139V119z M311.515,111.657c0,1.734,0.236,2.988,0.708,3.76c0.772,1.263,1.816,1.894,3.134,1.894
			c1.071,0,1.998-0.465,2.779-1.396c0.78-0.931,1.171-2.317,1.171-4.161c0-1.89-0.374-3.283-1.123-4.183
			c-0.75-0.899-1.655-1.349-2.718-1.349c-1.072,0-1.999,0.466-2.779,1.396C311.905,108.549,311.515,109.896,311.515,111.657z"/>
		<path fill="#FFFFFF" d="M323.816,114.682l2.425-0.382c0.136,0.972,0.516,1.717,1.138,2.234s1.491,0.776,2.608,0.776
			c1.126,0,1.962-0.229,2.507-0.688c0.545-0.459,0.817-0.997,0.817-1.614c0-0.555-0.241-0.99-0.722-1.309
			c-0.337-0.218-1.172-0.494-2.507-0.831c-1.799-0.453-3.045-0.847-3.739-1.178c-0.695-0.332-1.222-0.79-1.581-1.376
			c-0.358-0.586-0.538-1.233-0.538-1.941c0-0.645,0.147-1.242,0.443-1.791c0.295-0.55,0.696-1.006,1.205-1.369
			c0.382-0.282,0.901-0.521,1.561-0.716c0.658-0.195,1.364-0.293,2.118-0.293c1.135,0,2.132,0.164,2.99,0.49
			c0.858,0.327,1.491,0.771,1.9,1.329c0.408,0.559,0.69,1.306,0.845,2.24l-2.397,0.327c-0.109-0.744-0.425-1.326-0.947-1.743
			c-0.522-0.418-1.26-0.627-2.214-0.627c-1.126,0-1.93,0.187-2.411,0.559s-0.722,0.809-0.722,1.308c0,0.318,0.1,0.604,0.3,0.858
			c0.199,0.264,0.513,0.481,0.939,0.653c0.245,0.092,0.968,0.3,2.166,0.627c1.734,0.463,2.945,0.843,3.631,1.138
			s1.224,0.725,1.614,1.287c0.391,0.563,0.586,1.263,0.586,2.099c0,0.817-0.238,1.587-0.716,2.309
			c-0.477,0.722-1.164,1.28-2.063,1.676s-1.916,0.593-3.052,0.593c-1.88,0-3.312-0.391-4.298-1.172S324.089,116.217,323.816,114.682
			z"/>
		<path fill="#FFFFFF" d="M338.761,101.849v-2.82h2.452v2.82H338.761z M338.761,119v-14.468h2.452V119H338.761z"/>
		<path fill="#FFFFFF" d="M350.3,116.807l0.354,2.166c-0.69,0.146-1.308,0.218-1.853,0.218c-0.89,0-1.58-0.141-2.07-0.422
			c-0.491-0.281-0.836-0.651-1.036-1.11c-0.199-0.459-0.299-1.424-0.299-2.895v-8.324h-1.799v-1.907h1.799v-3.583l2.438-1.471v5.054
			h2.466v1.907h-2.466v8.46c0,0.699,0.043,1.149,0.129,1.349c0.086,0.2,0.228,0.359,0.423,0.477
			c0.195,0.118,0.474,0.178,0.838,0.178C349.496,116.902,349.854,116.87,350.3,116.807z"/>
		<path fill="#FFFFFF" d="M362.602,114.341l2.534,0.313c-0.4,1.48-1.141,2.629-2.221,3.446c-1.081,0.817-2.462,1.227-4.142,1.227
			c-2.116,0-3.794-0.651-5.034-1.955c-1.239-1.303-1.859-3.131-1.859-5.483c0-2.434,0.627-4.323,1.88-5.667
			c1.254-1.344,2.879-2.017,4.877-2.017c1.935,0,3.516,0.659,4.741,1.976c1.227,1.317,1.839,3.17,1.839,5.559
			c0,0.146-0.004,0.363-0.014,0.653h-10.789c0.091,1.59,0.54,2.807,1.349,3.651s1.816,1.267,3.024,1.267
			c0.899,0,1.666-0.236,2.302-0.708C361.725,116.13,362.229,115.376,362.602,114.341z M354.55,110.377h8.079
			c-0.109-1.217-0.418-2.13-0.927-2.738c-0.781-0.944-1.794-1.417-3.038-1.417c-1.126,0-2.072,0.377-2.84,1.131
			S354.632,109.114,354.55,110.377z"/>
		<path fill="#FFFFFF" d="M376.278,119V99.028h6.88c1.553,0,2.738,0.096,3.556,0.286c1.145,0.264,2.12,0.74,2.929,1.431
			c1.054,0.891,1.841,2.027,2.363,3.412c0.522,1.386,0.784,2.968,0.784,4.748c0,1.517-0.178,2.861-0.532,4.032
			c-0.354,1.172-0.808,2.142-1.362,2.909c-0.554,0.768-1.16,1.371-1.818,1.812s-1.453,0.774-2.384,1.001
			c-0.932,0.228-2.001,0.341-3.208,0.341H376.278z M378.921,116.644h4.265c1.316,0,2.35-0.123,3.099-0.368
			c0.75-0.245,1.347-0.59,1.792-1.035c0.626-0.627,1.114-1.469,1.464-2.527c0.35-1.058,0.525-2.341,0.525-3.849
			c0-2.089-0.344-3.693-1.029-4.815s-1.519-1.873-2.5-2.255c-0.708-0.272-1.848-0.408-3.419-0.408h-4.196V116.644z"/>
		<path fill="#FFFFFF" d="M406.018,114.341l2.534,0.313c-0.4,1.48-1.141,2.629-2.221,3.446c-1.081,0.817-2.462,1.227-4.142,1.227
			c-2.116,0-3.794-0.651-5.034-1.955c-1.239-1.303-1.859-3.131-1.859-5.483c0-2.434,0.627-4.323,1.88-5.667
			c1.254-1.344,2.879-2.017,4.877-2.017c1.935,0,3.516,0.659,4.741,1.976c1.227,1.317,1.839,3.17,1.839,5.559
			c0,0.146-0.004,0.363-0.014,0.653H397.83c0.091,1.59,0.54,2.807,1.349,3.651s1.816,1.267,3.024,1.267
			c0.899,0,1.666-0.236,2.302-0.708C405.141,116.13,405.645,115.376,406.018,114.341z M397.966,110.377h8.079
			c-0.109-1.217-0.418-2.13-0.927-2.738c-0.781-0.944-1.794-1.417-3.038-1.417c-1.126,0-2.072,0.377-2.84,1.131
			S398.048,109.114,397.966,110.377z"/>
		<path fill="#FFFFFF" d="M410.649,114.682l2.425-0.382c0.136,0.972,0.516,1.717,1.138,2.234s1.491,0.776,2.608,0.776
			c1.126,0,1.962-0.229,2.507-0.688c0.545-0.459,0.817-0.997,0.817-1.614c0-0.555-0.241-0.99-0.722-1.309
			c-0.337-0.218-1.172-0.494-2.507-0.831c-1.799-0.453-3.045-0.847-3.739-1.178c-0.695-0.332-1.222-0.79-1.581-1.376
			c-0.358-0.586-0.538-1.233-0.538-1.941c0-0.645,0.147-1.242,0.443-1.791c0.295-0.55,0.696-1.006,1.205-1.369
			c0.382-0.282,0.901-0.521,1.561-0.716c0.658-0.195,1.364-0.293,2.118-0.293c1.135,0,2.132,0.164,2.99,0.49
			c0.858,0.327,1.491,0.771,1.9,1.329c0.408,0.559,0.69,1.306,0.845,2.24l-2.397,0.327c-0.109-0.744-0.425-1.326-0.947-1.743
			c-0.522-0.418-1.26-0.627-2.214-0.627c-1.126,0-1.93,0.187-2.411,0.559s-0.722,0.809-0.722,1.308c0,0.318,0.1,0.604,0.3,0.858
			c0.199,0.264,0.513,0.481,0.939,0.653c0.245,0.092,0.968,0.3,2.166,0.627c1.734,0.463,2.945,0.843,3.631,1.138
			s1.224,0.725,1.614,1.287c0.391,0.563,0.586,1.263,0.586,2.099c0,0.817-0.238,1.587-0.716,2.309
			c-0.477,0.722-1.164,1.28-2.063,1.676s-1.916,0.593-3.052,0.593c-1.88,0-3.312-0.391-4.298-1.172S410.922,116.217,410.649,114.682
			z"/>
		<path fill="#FFFFFF" d="M425.594,101.849v-2.82h2.452v2.82H425.594z M425.594,119v-14.468h2.452V119H425.594z"/>
		<path fill="#FFFFFF" d="M431.329,120.199l2.384,0.354c0.1,0.736,0.377,1.271,0.831,1.607c0.608,0.454,1.439,0.682,2.493,0.682
			c1.135,0,2.012-0.228,2.629-0.682c0.618-0.454,1.035-1.09,1.254-1.907c0.127-0.499,0.186-1.548,0.177-3.146
			c-1.071,1.263-2.407,1.894-4.005,1.894c-1.989,0-3.528-0.718-4.618-2.152s-1.635-3.156-1.635-5.163
			c0-1.381,0.249-2.654,0.749-3.821c0.499-1.167,1.224-2.068,2.173-2.704s2.063-0.954,3.345-0.954c1.707,0,3.114,0.69,4.223,2.071
			v-1.744h2.262v12.506c0,2.253-0.229,3.849-0.688,4.789c-0.458,0.939-1.185,1.682-2.18,2.227c-0.994,0.545-2.218,0.817-3.671,0.817
			c-1.726,0-3.12-0.388-4.183-1.164S431.293,121.761,431.329,120.199z M433.358,111.508c0,1.897,0.377,3.282,1.131,4.154
			s1.698,1.308,2.834,1.308c1.126,0,2.07-0.434,2.833-1.301c0.764-0.867,1.145-2.228,1.145-4.08c0-1.771-0.393-3.105-1.178-4.005
			c-0.786-0.899-1.732-1.349-2.841-1.349c-1.09,0-2.017,0.442-2.779,1.328S433.358,109.764,433.358,111.508z"/>
		<path fill="#FFFFFF" d="M447.296,119v-14.468h2.207v2.058c1.062-1.59,2.598-2.385,4.604-2.385c0.872,0,1.674,0.157,2.404,0.471
			c0.731,0.312,1.278,0.724,1.642,1.232s0.618,1.112,0.764,1.812c0.09,0.455,0.136,1.249,0.136,2.385V119h-2.452v-8.801
			c0-0.999-0.096-1.745-0.286-2.24s-0.529-0.891-1.015-1.186c-0.486-0.295-1.056-0.443-1.71-0.443c-1.044,0-1.946,0.332-2.704,0.995
			c-0.759,0.663-1.138,1.921-1.138,3.773V119H447.296z"/>
	</g>
	<g>
		<path fill="#D41B5F" d="M5.919,24.968h8.056v4.51c2.882-3.504,6.314-5.256,10.296-5.256c2.114,0,3.95,0.436,5.505,1.306
			c1.556,0.871,2.83,2.188,3.826,3.95c1.451-1.762,3.017-3.079,4.696-3.95c1.68-0.871,3.473-1.306,5.381-1.306
			c2.426,0,4.479,0.493,6.158,1.478s2.935,2.431,3.764,4.339c0.602,1.41,0.902,3.691,0.902,6.843V58h-8.74V39.12
			c0-3.276-0.301-5.391-0.902-6.345c-0.809-1.244-2.053-1.866-3.732-1.866c-1.224,0-2.374,0.374-3.452,1.12
			c-1.078,0.747-1.856,1.841-2.333,3.282c-0.477,1.441-0.715,3.717-0.715,6.827V58h-8.74V39.898c0-3.214-0.155-5.288-0.467-6.221
			c-0.311-0.933-0.793-1.628-1.446-2.084s-1.54-0.685-2.659-0.685c-1.349,0-2.562,0.363-3.64,1.089
			c-1.078,0.726-1.851,1.773-2.316,3.141c-0.467,1.369-0.7,3.639-0.7,6.812V58h-8.74V24.968z"/>
		<path fill="#D41B5F" d="M82.341,47.487l8.709,1.462c-1.12,3.193-2.888,5.625-5.304,7.294c-2.416,1.669-5.438,2.504-9.066,2.504
			c-5.744,0-9.995-1.876-12.753-5.63c-2.177-3.006-3.266-6.801-3.266-11.384c0-5.474,1.431-9.761,4.293-12.861
			c2.861-3.1,6.479-4.65,10.854-4.65c4.915,0,8.792,1.623,11.633,4.868c2.841,3.246,4.199,8.217,4.074,14.914H69.619
			c0.062,2.592,0.767,4.609,2.115,6.05c1.348,1.441,3.027,2.162,5.039,2.162c1.368,0,2.519-0.374,3.452-1.12
			C81.158,50.349,81.863,49.146,82.341,47.487z M82.838,38.654c-0.062-2.53-0.715-4.453-1.959-5.77
			c-1.244-1.316-2.758-1.975-4.541-1.975c-1.908,0-3.484,0.695-4.729,2.084c-1.244,1.39-1.855,3.277-1.835,5.661H82.838z"/>
		<path fill="#D41B5F" d="M98.639,58V12.402h8.74V58H98.639z"/>
		<path fill="#D41B5F" d="M122.868,35.045l-7.931-1.431c0.891-3.193,2.426-5.557,4.603-7.091c2.178-1.535,5.412-2.302,9.705-2.302
			c3.897,0,6.801,0.461,8.709,1.384c1.907,0.923,3.25,2.095,4.027,3.515c0.778,1.42,1.167,4.028,1.167,7.822l-0.094,10.202
			c0,2.903,0.14,5.044,0.42,6.423s0.804,2.856,1.571,4.432h-8.647c-0.229-0.58-0.508-1.441-0.84-2.582
			c-0.146-0.518-0.249-0.86-0.311-1.026c-1.493,1.452-3.09,2.54-4.79,3.266s-3.515,1.089-5.443,1.089c-3.4,0-6.081-0.922-8.04-2.768
			c-1.96-1.846-2.939-4.178-2.939-6.999c0-1.866,0.445-3.53,1.338-4.992c0.891-1.462,2.141-2.582,3.748-3.359
			c1.606-0.778,3.924-1.457,6.951-2.038c4.085-0.767,6.915-1.482,8.491-2.146v-0.871c0-1.68-0.415-2.877-1.244-3.592
			s-2.395-1.073-4.696-1.073c-1.556,0-2.769,0.306-3.64,0.917C124.112,32.438,123.407,33.511,122.868,35.045z M134.563,42.137
			c-1.12,0.373-2.893,0.819-5.318,1.337c-2.427,0.519-4.013,1.026-4.759,1.524c-1.141,0.809-1.711,1.835-1.711,3.08
			c0,1.224,0.456,2.281,1.368,3.172c0.912,0.892,2.073,1.337,3.484,1.337c1.575,0,3.079-0.518,4.51-1.555
			c1.058-0.788,1.752-1.752,2.084-2.893c0.228-0.747,0.342-2.167,0.342-4.261V42.137z"/>
		<path fill="#D41B5F" d="M181.81,58h-8.74V41.142c0-3.566-0.187-5.874-0.56-6.921c-0.373-1.047-0.979-1.861-1.819-2.441
			s-1.851-0.871-3.033-0.871c-1.514,0-2.872,0.415-4.074,1.244c-1.203,0.83-2.027,1.929-2.473,3.297
			c-0.446,1.368-0.669,3.898-0.669,7.589V58h-8.74V24.968h8.118v4.852c2.882-3.732,6.511-5.599,10.887-5.599
			c1.928,0,3.69,0.347,5.287,1.042s2.805,1.581,3.624,2.659c0.818,1.079,1.389,2.302,1.71,3.67s0.482,3.328,0.482,5.878V58z"/>
		<path fill="#D41B5F" d="M190.674,20.489v-8.087h8.74v8.087H190.674z M190.674,58V24.968h8.74V58H190.674z"/>
		<path fill="#D41B5F" d="M227.501,47.487l8.709,1.462c-1.12,3.193-2.888,5.625-5.304,7.294c-2.416,1.669-5.438,2.504-9.066,2.504
			c-5.744,0-9.995-1.876-12.753-5.63c-2.177-3.006-3.266-6.801-3.266-11.384c0-5.474,1.431-9.761,4.293-12.861
			c2.861-3.1,6.479-4.65,10.854-4.65c4.915,0,8.792,1.623,11.633,4.868c2.841,3.246,4.199,8.217,4.074,14.914h-21.896
			c0.062,2.592,0.767,4.609,2.115,6.05c1.348,1.441,3.027,2.162,5.039,2.162c1.368,0,2.519-0.374,3.452-1.12
			C226.318,50.349,227.023,49.146,227.501,47.487z M227.998,38.654c-0.062-2.53-0.715-4.453-1.959-5.77
			c-1.244-1.316-2.758-1.975-4.541-1.975c-1.908,0-3.484,0.695-4.729,2.084c-1.244,1.39-1.855,3.277-1.835,5.661H227.998z"/>
	</g>
	<g>
		<path fill="#FFFFFF" d="M272.601,34.734l-8.615,1.555c-0.291-1.721-0.949-3.017-1.976-3.888c-1.026-0.871-2.358-1.306-3.997-1.306
			c-2.177,0-3.914,0.751-5.209,2.255c-1.297,1.503-1.944,4.018-1.944,7.542c0,3.919,0.658,6.687,1.975,8.305
			c1.317,1.617,3.085,2.426,5.304,2.426c1.658,0,3.017-0.472,4.074-1.416c1.058-0.943,1.804-2.566,2.239-4.868l8.585,1.462
			c-0.892,3.94-2.603,6.916-5.132,8.927c-2.53,2.011-5.921,3.017-10.171,3.017c-4.832,0-8.684-1.524-11.556-4.572
			s-4.308-7.268-4.308-12.659c0-5.453,1.441-9.699,4.323-12.737c2.883-3.038,6.781-4.557,11.695-4.557
			c4.022,0,7.221,0.866,9.596,2.597C269.858,28.55,271.563,31.189,272.601,34.734z"/>
		<path fill="#FFFFFF" d="M287.593,58h-8.74V24.968h8.118v4.696c1.389-2.218,2.638-3.68,3.748-4.385
			c1.108-0.705,2.368-1.058,3.778-1.058c1.991,0,3.908,0.55,5.755,1.648l-2.706,7.62c-1.473-0.953-2.842-1.431-4.106-1.431
			c-1.224,0-2.26,0.337-3.11,1.011c-0.85,0.674-1.519,1.893-2.006,3.655c-0.487,1.763-0.73,5.454-0.73,11.073V58z"/>
		<path fill="#FFFFFF" d="M323.145,47.487l8.709,1.462c-1.12,3.193-2.888,5.625-5.304,7.294c-2.416,1.669-5.438,2.504-9.066,2.504
			c-5.744,0-9.995-1.876-12.753-5.63c-2.177-3.006-3.266-6.801-3.266-11.384c0-5.474,1.431-9.761,4.293-12.861
			c2.861-3.1,6.479-4.65,10.854-4.65c4.915,0,8.792,1.623,11.633,4.868c2.841,3.246,4.199,8.217,4.074,14.914h-21.896
			c0.062,2.592,0.767,4.609,2.115,6.05c1.348,1.441,3.027,2.162,5.039,2.162c1.368,0,2.519-0.374,3.452-1.12
			C321.962,50.349,322.667,49.146,323.145,47.487z M323.642,38.654c-0.062-2.53-0.715-4.453-1.959-5.77
			c-1.244-1.316-2.758-1.975-4.541-1.975c-1.908,0-3.484,0.695-4.729,2.084c-1.244,1.39-1.855,3.277-1.835,5.661H323.642z"/>
		<path fill="#FFFFFF" d="M345.974,35.045l-7.931-1.431c0.891-3.193,2.426-5.557,4.603-7.091c2.178-1.535,5.412-2.302,9.705-2.302
			c3.897,0,6.801,0.461,8.709,1.384c1.907,0.923,3.25,2.095,4.027,3.515c0.778,1.42,1.167,4.028,1.167,7.822l-0.094,10.202
			c0,2.903,0.14,5.044,0.42,6.423s0.804,2.856,1.571,4.432h-8.647c-0.229-0.58-0.508-1.441-0.84-2.582
			c-0.146-0.518-0.249-0.86-0.311-1.026c-1.493,1.452-3.09,2.54-4.79,3.266s-3.515,1.089-5.443,1.089c-3.4,0-6.081-0.922-8.04-2.768
			c-1.96-1.846-2.939-4.178-2.939-6.999c0-1.866,0.445-3.53,1.338-4.992c0.891-1.462,2.141-2.582,3.748-3.359
			c1.606-0.778,3.924-1.457,6.951-2.038c4.085-0.767,6.915-1.482,8.491-2.146v-0.871c0-1.68-0.415-2.877-1.244-3.592
			s-2.395-1.073-4.696-1.073c-1.556,0-2.769,0.306-3.64,0.917C347.218,32.438,346.513,33.511,345.974,35.045z M357.669,42.137
			c-1.12,0.373-2.893,0.819-5.318,1.337c-2.427,0.519-4.013,1.026-4.759,1.524c-1.141,0.809-1.711,1.835-1.711,3.08
			c0,1.224,0.456,2.281,1.368,3.172c0.912,0.892,2.073,1.337,3.484,1.337c1.575,0,3.079-0.518,4.51-1.555
			c1.058-0.788,1.752-1.752,2.084-2.893c0.228-0.747,0.342-2.167,0.342-4.261V42.137z"/>
		<path fill="#FFFFFF" d="M390.017,24.968v6.967h-5.972v13.312c0,2.696,0.057,4.267,0.171,4.712
			c0.113,0.446,0.373,0.814,0.777,1.104c0.404,0.291,0.896,0.436,1.478,0.436c0.809,0,1.979-0.28,3.515-0.84l0.746,6.78
			c-2.032,0.871-4.334,1.307-6.904,1.307c-1.576,0-2.997-0.265-4.262-0.793c-1.265-0.528-2.192-1.213-2.783-2.053
			s-1.001-1.975-1.229-3.406c-0.187-1.016-0.28-3.068-0.28-6.159V31.935h-4.013v-6.967h4.013v-6.563l8.771-5.101v11.664H390.017z"/>
		<path fill="#FFFFFF" d="M415.211,47.487l8.709,1.462c-1.12,3.193-2.888,5.625-5.304,7.294c-2.416,1.669-5.438,2.504-9.066,2.504
			c-5.744,0-9.995-1.876-12.753-5.63c-2.177-3.006-3.266-6.801-3.266-11.384c0-5.474,1.431-9.761,4.293-12.861
			c2.861-3.1,6.479-4.65,10.854-4.65c4.915,0,8.792,1.623,11.633,4.868c2.841,3.246,4.199,8.217,4.074,14.914h-21.896
			c0.062,2.592,0.767,4.609,2.115,6.05c1.348,1.441,3.027,2.162,5.039,2.162c1.368,0,2.519-0.374,3.452-1.12
			C414.028,50.349,414.733,49.146,415.211,47.487z M415.708,38.654c-0.062-2.53-0.715-4.453-1.959-5.77
			c-1.244-1.316-2.758-1.975-4.541-1.975c-1.908,0-3.484,0.695-4.729,2.084c-1.244,1.39-1.855,3.277-1.835,5.661H415.708z"/>
		<path fill="#FFFFFF" d="M428.43,48.576l8.771-1.337c0.374,1.7,1.131,2.991,2.271,3.872c1.14,0.882,2.736,1.322,4.789,1.322
			c2.261,0,3.961-0.415,5.102-1.244c0.767-0.581,1.15-1.358,1.15-2.333c0-0.663-0.207-1.213-0.622-1.648
			c-0.436-0.415-1.41-0.798-2.924-1.151c-7.05-1.555-11.519-2.975-13.405-4.261c-2.612-1.783-3.919-4.261-3.919-7.434
			c0-2.861,1.13-5.267,3.391-7.216c2.26-1.949,5.764-2.924,10.513-2.924c4.521,0,7.879,0.736,10.077,2.208
			c2.198,1.473,3.712,3.65,4.541,6.532l-8.242,1.524c-0.353-1.286-1.021-2.271-2.006-2.955c-0.985-0.684-2.391-1.026-4.215-1.026
			c-2.302,0-3.95,0.322-4.945,0.964c-0.664,0.456-0.995,1.047-0.995,1.773c0,0.622,0.29,1.151,0.871,1.586
			c0.787,0.581,3.509,1.399,8.164,2.457s7.905,2.354,9.751,3.888c1.824,1.555,2.737,3.722,2.737,6.501
			c0,3.027-1.265,5.629-3.795,7.807c-2.529,2.177-6.272,3.266-11.229,3.266c-4.499,0-8.061-0.912-10.684-2.737
			C430.954,54.185,429.238,51.707,428.43,48.576z"/>
	</g>
	<g>
		<path fill="#FFFFFF" d="M120.66,113.439c-0.727,0-1.354-0.234-1.881-0.703s-0.791-1.125-0.791-1.969
			c0-0.715,0.252-1.33,0.756-1.846s1.125-0.773,1.863-0.773s1.368,0.255,1.89,0.765s0.782,1.128,0.782,1.854
			c0,0.832-0.261,1.485-0.782,1.96S121.363,113.439,120.66,113.439z"/>
	</g>
	<g>
		<path fill="#FFFFFF" d="M255.66,113.439c-0.727,0-1.354-0.234-1.881-0.703s-0.791-1.125-0.791-1.969
			c0-0.715,0.252-1.33,0.756-1.846s1.125-0.773,1.863-0.773s1.368,0.255,1.89,0.765s0.782,1.128,0.782,1.854
			c0,0.832-0.261,1.485-0.782,1.96S256.363,113.439,255.66,113.439z"/>
	</g>
</g>
</svg>
